<svg xmlns="http://www.w3.org/2000/svg" preserveAspectRatio="xMidYMin meet" id="album-play" viewBox="0 0 25.4 25.4">
<path fill="#010002" d="M12.7,25.4A12.7,12.7,0,1,1,25.4,12.7,12.71,12.71,0,0,1,12.7,25.4Zm0-24A11.3,11.3,0,1,0,24,12.7,11.31,11.31,0,0,0,12.7,1.4Z"/>
<path fill="#010002" d="M11,16.47,17,13a.34.34,0,0,0,0-.59L11,8.93a.34.34,0,0,0-.51.29v7A.34.34,0,0,0,11,16.47Z"/>
<path fill="#010002" d="M12.7,25.4A12.7,12.7,0,1,1,25.4,12.7,12.71,12.71,0,0,1,12.7,25.4Zm0-24A11.3,11.3,0,1,0,24,12.7,11.31,11.31,0,0,0,12.7,1.4Z"/>
<path fill="#010002" d="M11,16.47,17,13a.34.34,0,0,0,0-.59L11,8.93a.34.34,0,0,0-.51.29v7A.34.34,0,0,0,11,16.47Z"/>
</svg>